<svg width="100" height="100" viewBox="0 0 100 100" fill="none" xmlns="http://www.w3.org/2000/svg">
<path d="M58.3333 33.3334C62.9357 33.3334 66.6667 29.6024 66.6667 25C66.6667 20.3976 62.9357 16.6667 58.3333 16.6667C53.731 16.6667 50 20.3976 50 25C50 29.6024 53.731 33.3334 58.3333 33.3334Z" stroke="white" stroke-width="8.33333" stroke-linecap="round" stroke-linejoin="round"/>
<path d="M66.6667 25H83.3333M16.6667 25H50H16.6667Z" stroke="white" stroke-width="8.33333" stroke-linecap="round" stroke-linejoin="round"/>
<path d="M33.3333 58.3334C37.9357 58.3334 41.6667 54.6024 41.6667 50C41.6667 45.3976 37.9357 41.6667 33.3333 41.6667C28.731 41.6667 25 45.3976 25 50C25 54.6024 28.731 58.3334 33.3333 58.3334Z" stroke="white" stroke-width="8.33333" stroke-linecap="round" stroke-linejoin="round"/>
<path d="M41.6667 50H83.3333M16.6667 50H25H16.6667Z" stroke="white" stroke-width="8.33333" stroke-linecap="round" stroke-linejoin="round"/>
<path d="M70.8333 83.3334C75.4357 83.3334 79.1667 79.6024 79.1667 75C79.1667 70.3976 75.4357 66.6667 70.8333 66.6667C66.231 66.6667 62.5 70.3976 62.5 75C62.5 79.6024 66.231 83.3334 70.8333 83.3334Z" stroke="white" stroke-width="8.33333" stroke-linecap="round" stroke-linejoin="round"/>
<path d="M79.1667 75H83.3333M16.6667 75H62.5H16.6667Z" stroke="white" stroke-width="8.33333" stroke-linecap="round" stroke-linejoin="round"/>
</svg>
