<svg width="42" height="42" viewBox="0 0 42 42" fill="none" xmlns="http://www.w3.org/2000/svg">
<path d="M20.8333 35.8333C15.625 35.8333 11.0208 33.1667 8.33333 29.1667C8.39583 25 16.6667 22.7083 20.8333 22.7083C25 22.7083 33.2708 25 33.3333 29.1667C31.956 31.2175 30.0955 32.8982 27.9158 34.0608C25.736 35.2233 23.3038 35.8321 20.8333 35.8333ZM20.8333 6.25C22.4909 6.25 24.0806 6.90848 25.2528 8.08058C26.4249 9.25268 27.0833 10.8424 27.0833 12.5C27.0833 14.1576 26.4249 15.7473 25.2528 16.9194C24.0806 18.0915 22.4909 18.75 20.8333 18.75C19.1757 18.75 17.586 18.0915 16.4139 16.9194C15.2418 15.7473 14.5833 14.1576 14.5833 12.5C14.5833 10.8424 15.2418 9.25268 16.4139 8.08058C17.586 6.90848 19.1757 6.25 20.8333 6.25ZM20.8333 0C18.0975 0 15.3884 0.53887 12.8608 1.58584C10.3331 2.63282 8.0365 4.16739 6.10194 6.10194C2.19493 10.0089 0 15.308 0 20.8333C0 26.3587 2.19493 31.6577 6.10194 35.5647C8.0365 37.4993 10.3331 39.0339 12.8608 40.0808C15.3884 41.1278 18.0975 41.6667 20.8333 41.6667C26.3587 41.6667 31.6577 39.4717 35.5647 35.5647C39.4717 31.6577 41.6667 26.3587 41.6667 20.8333C41.6667 9.3125 32.2917 0 20.8333 0Z" fill="white"/>
</svg>
